<svg viewBox="0 0 512 512" xml:space="preserve" xmlns="http://www.w3.org/2000/svg"><path d="m400.398 324.883-93.392-59.014 92.734-68.584c4.557-3.363 5.518-9.781 2.148-14.331s-9.786-5.511-14.337-2.143L256.05 278.062l-.055-.044-.055.044-131.497-97.251c-4.545-3.369-10.962-2.408-14.331 2.143s-2.408 10.968 2.143 14.331l92.734 68.584-93.386 59.014c-4.788 3.026-6.213 9.354-3.192 14.144a10.257 10.257 0 0 0 8.67 4.776c1.878 0 3.767-.514 5.467-1.591l100.124-63.266 27.237 20.146a10.22 10.22 0 0 0 6.086 2.01c2.142 0 4.285-.674 6.097-2.01l27.231-20.146 100.117 63.266a10.207 10.207 0 0 0 5.468 1.591c3.401 0 6.727-1.695 8.676-4.776 3.021-4.79 1.596-11.118-3.186-14.144z" fill="#ffffff" class="fill-000000"></path><path d="M390.948 119.897H121.046c-39.629 0-71.87 35.129-71.87 78.304v115.592c0 43.181 32.241 78.31 71.87 78.31h269.902c39.636 0 71.876-35.129 71.876-78.31V198.201c0-43.175-32.24-78.304-71.876-78.304zm48.35 193.896c0 29.088-21.647 52.675-48.35 52.675H121.046c-26.696 0-48.344-23.587-48.344-52.675V198.201c0-29.087 21.648-52.668 48.344-52.668h269.902c26.702 0 48.35 23.581 48.35 52.668v115.592z" fill="#ffffff" class="fill-000000"></path></svg>