<svg viewBox="0 0 48 48" xml:space="preserve" xmlns="http://www.w3.org/2000/svg" enable-background="new 0 0 48 48"><path d="M33.346 26.734h-3.76v-5.47h3.76c.65 0 1.18-.53 1.18-1.18 0-.65-.53-1.19-1.18-1.19h-3.76v-3.57c0-.65-.53-1.19-1.18-1.19s-1.19.54-1.19 1.19v3.57h-6.29v-3.57c0-.65-.54-1.19-1.19-1.19s-1.18.54-1.18 1.19v3.57h-3.9c-.65 0-1.18.54-1.18 1.19 0 .65.53 1.18 1.18 1.18h3.9v5.47h-3.898a1.18 1.18 0 0 0-1.184 1.185c0 .651.533 1.184 1.184 1.184h3.898v3.573c0 .65.53 1.19 1.18 1.19s1.19-.54 1.19-1.19v-3.573h6.29v3.573c0 .65.54 1.19 1.19 1.19s1.18-.54 1.18-1.19v-3.572h3.76c.65 0 1.18-.53 1.18-1.18 0-.67-.53-1.19-1.18-1.19zm-12.42-5.47h6.29v5.47h-6.29v-5.47z" fill="#ffffff" class="fill-4aa0ec"></path></svg>