<svg viewBox="0 0 24 24" xmlns="http://www.w3.org/2000/svg"><path d="M23 12a11 11 0 0 1-22 0 10.827 10.827 0 0 1 .29-2.5 11 11 0 0 1 21.42 0A10.827 10.827 0 0 1 23 12Z" fill="#28a745" class="fill-56b54e"></path><ellipse cx="12" cy="9.5" rx="10.71" ry="8.5" fill="#28a745" class="fill-60cc5a"></ellipse><g data-name="Layer 4"><path d="M12 0a12 12 0 1 0 12 12A12.013 12.013 0 0 0 12 0Zm0 22a10 10 0 1 1 10-10 10.011 10.011 0 0 1-10 10Z" fill="#ffffff" class="fill-6c2e7c"></path><path d="M16.293 8.293 10 14.586l-2.293-2.293a1 1 0 0 0-1.414 1.414l3 3a1 1 0 0 0 1.414 0l7-7a1 1 0 0 0-1.414-1.414Z" fill="#ffffff" class="fill-6c2e7c"></path></g></svg>