<svg xmlns="http://www.w3.org/2000/svg" xmlns:xlink="http://www.w3.org/1999/xlink" viewBox="0,0,256,256" width="48px" height="48px" fill-rule="nonzero"><defs><linearGradient x1="7.421" y1="19.248" x2="50.57" y2="52.44" gradientUnits="userSpaceOnUse" id="color-1"><stop offset="0" stop-color="#ffffff"></stop><stop offset="0.293" stop-color="#ffffff"></stop><stop offset="0.465" stop-color="#ffffff"></stop><stop offset="0.605" stop-color="#ffffff"></stop><stop offset="0.729" stop-color="#ffffff"></stop><stop offset="0.841" stop-color="#ff1717"></stop><stop offset="0.944" stop-color="#ff0007"></stop><stop offset="1" stop-color="#ffffff"></stop></linearGradient><linearGradient x1="15.63" y1="6.211" x2="35.545" y2="23.573" gradientUnits="userSpaceOnUse" id="color-2"><stop offset="0" stop-color="#ffffff"></stop><stop offset="1" stop-color="#ffffff"></stop></linearGradient></defs><g transform="translate(34.56,34.56) scale(0.73,0.73)"><g fill="#ff0000" fill-rule="nonzero" stroke="none" stroke-width="1" stroke-linecap="butt" stroke-linejoin="miter" stroke-miterlimit="10" stroke-dasharray="" stroke-dashoffset="0" font-family="none" font-weight="none" font-size="none" text-anchor="none" style="mix-blend-mode: normal"><path d="M128,303.34247c-96.83897,0 -175.34247,-78.5035 -175.34247,-175.34247v0c0,-96.83897 78.5035,-175.34247 175.34247,-175.34247h0c96.83897,0 175.34247,78.5035 175.34247,175.34247v0c0,96.83897 -78.5035,175.34247 -175.34247,175.34247z" id="shape"></path></g><g fill="none" fill-rule="nonzero" stroke="none" stroke-width="1" stroke-linecap="butt" stroke-linejoin="miter" stroke-miterlimit="10" stroke-dasharray="" stroke-dashoffset="0" font-family="none" font-weight="none" font-size="none" text-anchor="none" style="mix-blend-mode: normal"><g transform="scale(5.33333,5.33333)"><path d="M38.799,26.439c0,-2.342 -1.94,-4.24 -4.329,-4.24c-3.412,-0.143 -6.905,-0.203 -10.47,-0.198c-3.563,-0.005 -7.056,0.056 -10.47,0.198c-2.387,0 -4.327,1.898 -4.327,4.24c-0.142,1.852 -0.208,3.706 -0.203,5.562c-0.005,1.853 0.06,3.707 0.204,5.561c0,2.345 1.938,4.243 4.326,4.243c3.414,0.14 6.907,0.2 10.47,0.195c3.564,0.008 7.058,-0.056 10.47,-0.195c2.389,0 4.329,-1.898 4.329,-4.243c0.142,-1.854 0.209,-3.708 0.201,-5.561c0.008,-1.856 -0.059,-3.71 -0.201,-5.562z" fill="url(#color-1)"></path><path d="M37.728,31.292c0,-1.225 -0.332,-2.208 -0.985,-2.925c-0.684,-0.75 -1.629,-1.129 -2.811,-1.129c-1.153,0 -2.116,0.39 -2.86,1.159c-0.176,0.181 -0.332,0.376 -0.466,0.584c-0.084,-0.182 -0.183,-0.35 -0.295,-0.504c-0.533,-0.731 -1.326,-1.117 -2.292,-1.117c-0.139,0 -0.277,0.011 -0.415,0.032v-2.149c0,-0.664 -0.541,-1.203 -1.206,-1.203h-1.837c-0.666,0 -1.207,0.54 -1.207,1.203v2.404c-0.172,-0.094 -0.359,-0.161 -0.568,-0.161h-1.821c-0.295,0 -0.566,0.106 -0.776,0.283c-0.209,-0.176 -0.48,-0.283 -0.775,-0.283h-0.658c0.032,-0.109 0.068,-0.217 0.068,-0.336v-1.904c0,-0.664 -0.541,-1.204 -1.206,-1.204h-6.291c-0.665,0 -1.205,0.54 -1.205,1.204v1.904c0,0.664 0.541,1.203 1.205,1.203h0.914v10.03c0,0.664 0.541,1.204 1.206,1.204h2.049c0.661,0 1.197,-0.534 1.204,-1.193c0.07,0.148 0.151,0.286 0.245,0.412c0.44,0.594 1.122,0.921 1.919,0.921c0.488,0 0.959,-0.114 1.43,-0.347c0.196,0.132 0.43,0.206 0.674,0.206h1.822c0.354,0 0.665,-0.159 0.885,-0.402c0.221,0.243 0.532,0.402 0.886,0.402h1.837c0.17,0 0.338,-0.036 0.492,-0.105c0.383,0.15 0.799,0.226 1.239,0.226c0.915,0 1.67,-0.349 2.183,-1.007c0.122,-0.155 0.229,-0.324 0.318,-0.508c0.099,0.157 0.21,0.305 0.332,0.444c0.695,0.792 1.674,1.211 2.83,1.211c1.262,0 2.251,-0.387 2.94,-1.15c0.66,-0.73 0.995,-1.758 0.995,-3.054v-0.729c0,-0.203 -0.052,-0.399 -0.146,-0.573c0.095,-0.174 0.147,-0.372 0.147,-0.575z" fill="#ffffff" opacity="0.05"></path><path d="M14.539,6h2.125l1.37,5.496h0.133l1.308,-5.493h2.147l-2.458,8.036v5.961h-2.112v-5.703zM21.525,11.923c0,-0.784 0.254,-1.411 0.759,-1.874c0.504,-0.466 1.182,-0.7 2.035,-0.7c0.778,0 1.413,0.245 1.908,0.737c0.495,0.488 0.743,1.121 0.743,1.894v5.235c0,0.866 -0.242,1.548 -0.728,2.044c-0.486,0.494 -1.152,0.741 -2.007,0.741c-0.823,0 -1.477,-0.259 -1.974,-0.767c-0.493,-0.508 -0.738,-1.194 -0.738,-2.055v-5.256h0.002zM23.455,17.368c0,0.275 0.066,0.494 0.205,0.646c0.132,0.15 0.322,0.226 0.571,0.226c0.255,0 0.454,-0.077 0.604,-0.234c0.149,-0.151 0.226,-0.366 0.226,-0.638v-5.522c0,-0.22 -0.079,-0.399 -0.231,-0.536c-0.151,-0.135 -0.352,-0.205 -0.599,-0.205c-0.229,0 -0.417,0.07 -0.561,0.205c-0.143,0.137 -0.215,0.316 -0.215,0.536zM33.918,9.605v10.395h-1.875v-1.266c-0.346,0.414 -0.705,0.728 -1.081,0.941c-0.372,0.215 -0.735,0.325 -1.086,0.325c-0.435,0 -0.76,-0.149 -0.981,-0.452c-0.221,-0.3 -0.329,-0.751 -0.329,-1.357v-8.586h1.874v7.886c0,0.236 0.04,0.41 0.12,0.519c0.075,0.104 0.207,0.162 0.38,0.162c0.141,0 0.315,-0.071 0.522,-0.215c0.213,-0.141 0.406,-0.324 0.581,-0.544v-7.808z" fill="url(#color-2)"></path><g fill="#ffffff" opacity="0.07"><path d="M37.228,31.292c0,-1.096 -0.288,-1.967 -0.854,-2.588c-0.584,-0.641 -1.406,-0.966 -2.441,-0.966c-1.013,0 -1.855,0.339 -2.502,1.008c-0.556,0.571 -0.861,1.294 -0.938,2.139c-0.016,-0.884 -0.209,-1.598 -0.584,-2.113c-0.435,-0.596 -1.087,-0.912 -1.888,-0.912c-0.308,0 -0.614,0.063 -0.915,0.189v-2.807c0,-0.388 -0.317,-0.703 -0.706,-0.703h-1.837c-0.39,0 -0.707,0.315 -0.707,0.703v13.14c0,0.388 0.317,0.704 0.707,0.704h1.837c0.174,0 0.333,-0.063 0.456,-0.167c0.002,0.001 0.004,0.002 0.006,0.003c0.38,0.189 0.807,0.285 1.269,0.285c0.755,0 1.375,-0.283 1.791,-0.816c0.385,-0.488 0.581,-1.167 0.581,-2.018v-0.133c0.091,0.828 0.364,1.526 0.837,2.066c0.598,0.681 1.447,1.041 2.455,1.041c1.115,0 1.979,-0.332 2.569,-0.985c0.574,-0.636 0.866,-1.551 0.866,-2.719v-0.729c0,-0.236 -0.117,-0.446 -0.297,-0.574c0.18,-0.128 0.298,-0.337 0.298,-0.574v-2.474zM27.214,36.114c0,0.067 -0.003,0.118 -0.008,0.157c-0.02,-0.004 -0.037,-0.01 -0.054,-0.019c-0.011,-0.006 -0.026,-0.014 -0.045,-0.027v-5.401c0.03,-0.013 0.052,-0.018 0.065,-0.02c0.017,0.042 0.042,0.139 0.042,0.304zM33.748,31.278c0,-0.266 0.033,-0.397 0.028,-0.427c0.015,-0.002 0.039,-0.005 0.075,-0.005l0.022,-0.048c0.001,0.001 0.067,0.109 0.067,0.48v0.274h-0.193v-0.274zM33.943,34.914v0.675c0,0.378 -0.031,0.578 -0.049,0.666c-0.019,0.007 -0.041,0.017 -0.069,0.028c-0.003,-0.006 -0.076,-0.155 -0.076,-0.692v-1.121h0.353c-0.1,0.121 -0.159,0.276 -0.159,0.444z"></path><path d="M18.323,27.149v-1.904c0,-0.388 -0.317,-0.704 -0.706,-0.704h-6.291c-0.389,0 -0.705,0.316 -0.705,0.704v1.904c0,0.388 0.316,0.703 0.705,0.703h1.414v10.53c0,0.388 0.316,0.704 0.706,0.704h2.049c0.389,0 0.706,-0.316 0.706,-0.704v-10.53h1.416c0.389,0 0.706,-0.315 0.706,-0.703z"></path><path d="M22.786,27.985h-1.821c-0.39,0 -0.707,0.316 -0.707,0.704v7.089c-0.044,0.044 -0.09,0.084 -0.139,0.123v-7.212c0,-0.388 -0.317,-0.704 -0.706,-0.704h-1.821c-0.39,0 -0.707,0.316 -0.707,0.704v8.1c0,0.726 0.154,1.303 0.46,1.719c0.349,0.471 0.874,0.719 1.518,0.719c0.475,0 0.936,-0.131 1.406,-0.4c0.036,-0.02 0.071,-0.041 0.106,-0.062c0.126,0.193 0.344,0.321 0.592,0.321h1.822c0.389,0 0.706,-0.316 0.706,-0.705l-0.003,-9.692c0,-0.388 -0.317,-0.704 -0.706,-0.704z"></path></g><path d="M24.561,38.586h1.837c0.113,0 0.206,-0.09 0.206,-0.204v-0.233c0.152,0.134 0.313,0.242 0.479,0.325c0.313,0.156 0.663,0.233 1.046,0.233c0.601,0 1.072,-0.208 1.398,-0.626c0.314,-0.398 0.473,-0.972 0.473,-1.708l-0.002,-5.374c0,-0.832 -0.167,-1.483 -0.495,-1.933c-0.341,-0.468 -0.843,-0.706 -1.484,-0.706c-0.316,0 -0.632,0.086 -0.941,0.256c-0.164,0.093 -0.324,0.207 -0.474,0.343v-3.717c0,-0.112 -0.093,-0.203 -0.206,-0.203h-1.837c-0.115,0 -0.207,0.091 -0.207,0.203v13.14c0,0.114 0.093,0.204 0.207,0.204zM26.607,30.579c0.088,-0.088 0.172,-0.151 0.258,-0.193c0.299,-0.15 0.563,-0.08 0.697,0.098c0.099,0.132 0.152,0.347 0.152,0.625v5.005c0,0.321 -0.062,0.469 -0.119,0.54c-0.023,0.032 -0.095,0.123 -0.326,0.123c-0.122,0 -0.235,-0.025 -0.346,-0.08c-0.099,-0.051 -0.206,-0.131 -0.316,-0.242z" fill="#ff0000"></path><path d="M36.727,35.643v-0.729c0,-0.114 -0.091,-0.204 -0.205,-0.204h-1.872c-0.114,0 -0.207,0.09 -0.207,0.204v0.675c0,0.708 -0.102,0.93 -0.139,0.988c-0.081,0.109 -0.239,0.164 -0.469,0.164c-0.286,0 -0.385,-0.111 -0.438,-0.199c-0.066,-0.106 -0.148,-0.359 -0.148,-0.951v-1.621h3.273c0.114,0 0.206,-0.091 0.207,-0.204h-0.001v-2.474c0,-0.967 -0.244,-1.725 -0.724,-2.251c-0.485,-0.532 -1.182,-0.803 -2.072,-0.803c-0.87,0 -1.594,0.289 -2.144,0.857c-0.552,0.566 -0.83,1.304 -0.83,2.196v4.352c0,0.979 0.255,1.762 0.755,2.333c0.505,0.575 1.207,0.871 2.079,0.871c0.968,0 1.708,-0.277 2.198,-0.82c0.488,-0.54 0.737,-1.34 0.737,-2.384zM33.248,31.278c0,-0.453 0.081,-0.661 0.145,-0.752c0.09,-0.122 0.239,-0.18 0.458,-0.18c0.21,0 0.354,0.056 0.439,0.175c0.068,0.102 0.151,0.311 0.151,0.757v0.774h-1.193z" fill="#ff0000"></path><path d="M15.701,38.382v-11.03h1.916c0.115,0 0.206,-0.092 0.206,-0.203v-1.904c0,-0.112 -0.092,-0.204 -0.206,-0.204h-6.291c-0.113,0 -0.205,0.092 -0.205,0.204v1.904c0,0.111 0.092,0.203 0.205,0.203h1.914v11.03c0,0.111 0.092,0.204 0.206,0.204h2.049c0.114,0 0.206,-0.093 0.206,-0.204z" fill="#ff0000"></path><path d="M22.992,28.689c0,-0.112 -0.092,-0.204 -0.206,-0.204h-1.821c-0.115,0 -0.207,0.092 -0.207,0.204v7.283c-0.139,0.166 -0.297,0.31 -0.473,0.425c-0.217,0.147 -0.337,0.169 -0.389,0.169c-0.155,0 -0.192,-0.05 -0.205,-0.067c-0.028,-0.039 -0.072,-0.138 -0.072,-0.382v-7.428c0,-0.112 -0.092,-0.204 -0.206,-0.204h-1.821c-0.115,0 -0.207,0.092 -0.207,0.204v8.1c0,0.618 0.123,1.097 0.361,1.421c0.253,0.341 0.629,0.517 1.117,0.517c0.384,0 0.763,-0.109 1.16,-0.336c0.252,-0.142 0.495,-0.327 0.738,-0.56v0.551c0,0.111 0.092,0.204 0.206,0.204h1.822c0.114,0 0.206,-0.093 0.206,-0.204v-0.001h-0.003z" fill="#ff0000"></path></g></g></g></svg>